<?xml version="1.0" standalone="no"?>
<!DOCTYPE svg PUBLIC "-//W3C//DTD SVG 20010904//EN"
 "http://www.w3.org/TR/2001/REC-SVG-20010904/DTD/svg10.dtd">
<svg version="1.0" xmlns="http://www.w3.org/2000/svg"
 width="128.000000pt" height="128.000000pt" viewBox="0 0 128.000000 128.000000"
 preserveAspectRatio="xMidYMid meet">
<metadata>
Created by potrace 1.14, written by Peter Selinger 2001-2017
</metadata>
<g transform="translate(0.000000,128.000000) scale(0.100000,-0.100000)"
fill="#000000" stroke="none">
<path d="M0 640 l0 -640 640 0 640 0 0 640 0 640 -640 0 -640 0 0 -640z m777
275 c106 -52 167 -152 167 -275 0 -125 -61 -223 -172 -277 -74 -35 -182 -37
-254 -5 -57 25 -126 92 -151 145 -35 74 -42 138 -23 208 53 196 255 290 433
204z"/>
<path d="M400 640 l0 -140 30 0 30 0 0 60 0 60 40 0 c47 0 60 18 60 80 0 71
-11 80 -90 80 l-70 0 0 -140z m100 60 c0 -33 -3 -40 -20 -40 -17 0 -20 7 -20
40 0 33 3 40 20 40 17 0 20 -7 20 -40z"/>
<path d="M563 758 c3 -13 16 -76 28 -140 23 -117 23 -118 51 -118 15 0 28 1
28 3 0 1 11 60 25 132 14 71 25 133 25 137 0 14 -48 9 -53 -5 -3 -8 -8 -45
-12 -83 -9 -78 -18 -67 -30 34 -7 61 -8 62 -37 62 -26 0 -29 -3 -25 -22z"/>
<path d="M730 640 l0 -140 64 0 c92 0 96 6 96 139 0 132 -6 141 -98 141 l-62
0 0 -140z m108 20 c4 -94 -2 -120 -28 -120 -19 0 -20 7 -20 101 0 98 0 100 23
97 20 -3 22 -9 25 -78z"/>
</g>
</svg>
